<svg width="135" height="28" viewBox="0 0 135 28" fill="none" xmlns="http://www.w3.org/2000/svg"><path d="M0 2.01c0-.362.29-.725.652-.725h8.334c4.275 0 7.608 2.898 7.608 6.665 0 2.826-2.246 4.927-3.985 5.724 1.884.58 4.71 2.535 4.71 5.868 0 4.057-3.478 6.954-7.899 6.954H.652c-.362 0-.652-.362-.652-.724V2.01zm8.55 9.997c1.812 0 3.117-1.448 3.117-3.26 0-1.81-1.305-3.042-3.116-3.042H4.638v6.302H8.55zm.508 10.433a3.247 3.247 0 003.26-3.26c0-1.812-1.81-3.188-3.695-3.188H4.638v6.448h4.42zM46.594.996a12.988 12.988 0 0113.044 13.04c0 7.244-5.797 12.968-13.044 12.968-7.246.072-13.043-5.724-13.043-12.968 0-7.245 5.797-13.04 13.043-13.04zm0 21.371c4.566 0 8.334-3.695 8.334-8.259s-3.768-8.33-8.334-8.33c-4.565-.073-8.333 3.694-8.333 8.258 0 4.564 3.768 8.331 8.333 8.331zM77.39 2.01c0-.362.29-.725.653-.725h10.362c4.348 0 7.899 3.478 7.899 7.752 0 3.333-2.247 6.013-5.363 7.317l4.928 9.2c.217.508 0 1.087-.652 1.087h-3.768c-.29 0-.508-.217-.58-.362l-4.783-9.563h-3.985v9.2c0 .363-.362.725-.725.725h-3.333c-.363 0-.652-.362-.652-.724V2.01zm10.653 10.867c1.884 0 3.623-1.667 3.623-3.695 0-1.884-1.667-3.477-3.623-3.477h-5.87v7.172h5.87zM125.797.996c3.261 0 6.377 1.231 8.841 3.332.29.29.362.725 0 1.014l-2.246 2.319c-.29.29-.58.29-.942 0a8.173 8.173 0 00-5.508-2.101c-4.492 0-8.116 3.84-8.116 8.403 0 4.492 3.624 8.26 8.189 8.26 2.029 0 3.551-.58 4.275-.943v-3.042h-2.898a.65.65 0 01-.653-.652V14.76a.65.65 0 01.653-.652h6.956a.65.65 0 01.652.652v9.273c0 .29-.145.508-.29.58 0 0-3.695 2.318-8.985 2.318-7.246 0-12.971-5.723-12.971-12.968 0-7.172 5.797-12.967 13.043-12.967z" fill="#000"/><path d="M46.522 17.079a3.188 3.188 0 10.001-6.376 3.188 3.188 0 000 6.376z" fill="#EF7A1D"/></svg>